<svg width="28" height="28" viewBox="0 0 28 28" fill="none" xmlns="http://www.w3.org/2000/svg">
<g clip-path="url(#clip0_88_1892)">
<path fill-rule="evenodd" clip-rule="evenodd" d="M13.9995 0.348841C6.26907 0.348841 0 6.61686 0 14.3483C0 20.5342 4.01091 25.7801 9.57364 27.6321C10.2738 27.7618 10.5312 27.3277 10.5312 26.9577C10.5312 26.6239 10.5172 25.5212 10.5115 24.3523C6.61636 25.1993 5.79526 22.6998 5.79526 22.6998C5.15861 21.0814 4.24086 20.6509 4.24086 20.6509C2.97071 19.7812 4.33751 19.8004 4.33751 19.8004C5.74302 19.8986 6.48301 21.2421 6.48301 21.2421C7.73251 23.3824 9.75914 22.7628 10.5575 22.4058C10.6836 21.501 11.0453 20.8829 11.4463 20.5331C8.33652 20.1802 5.06765 18.9793 5.06765 13.6145C5.06765 12.0865 5.6154 10.837 6.50987 9.85725C6.36418 9.50384 5.88464 8.08074 6.64475 6.15276C6.64475 6.15276 7.82031 5.77607 10.496 7.58776C11.6122 7.27823 12.8094 7.12217 13.9985 7.11701C15.1885 7.12217 16.3878 7.2777 17.5056 7.58776C20.1776 5.77712 21.3521 6.15276 21.3521 6.15276C22.1133 8.08126 21.6359 9.50537 21.4901 9.85729C22.3877 10.837 22.9308 12.0865 22.9308 13.6145C22.9308 18.9917 19.6547 20.1739 16.5382 20.5207C17.0405 20.9547 17.489 21.8069 17.489 23.1121C17.489 24.9843 17.473 26.4931 17.473 26.9536C17.473 27.3261 17.7252 27.7618 18.4352 27.6253C23.9947 25.7723 28.0005 20.5258 28.0005 14.3436C28.0005 6.61319 21.7325 0.344116 14.0005 0.344116L13.9995 0.348797L13.9995 0.348841Z" fill="black"/>
</g>
<defs>
<clipPath id="clip0_88_1892">
<rect width="28" height="28" fill="white"/>
</clipPath>
</defs>
</svg>
