<svg width="28" height="28" viewBox="0 0 28 28" fill="none" xmlns="http://www.w3.org/2000/svg">
<g clip-path="url(#clip0_65_909)">
<path d="M14.0023 0C10.1992 0 9.7207 0.0159505 8.22819 0.0843099C7.067 0.107911 5.91823 0.328266 4.83073 0.736003C3.89604 1.08546 3.04965 1.63623 2.35156 2.34928C1.63915 3.0488 1.08715 3.89468 0.733724 4.82845C0.325828 5.91662 0.106218 7.0663 0.0843099 8.22819C0.0182292 9.7207 0 10.1969 0 14C0 17.8031 0.0159505 18.277 0.0843099 19.7718C0.107911 20.933 0.328266 22.0818 0.736002 23.1693C1.08718 24.1031 1.63772 24.9491 2.34928 25.6484C3.04819 26.3616 3.89424 26.9137 4.82845 27.2663C5.91691 27.6731 7.06641 27.8927 8.22819 27.9157C9.7207 27.9841 10.1969 28 14 28C17.8031 28 18.277 27.9841 19.7718 27.9157C20.9336 27.8927 22.0831 27.6731 23.1715 27.2663C24.1027 26.9051 24.9483 26.3539 25.6545 25.6477C26.3607 24.9415 26.9119 24.0958 27.2731 23.1647C27.6787 22.0766 27.8989 20.9282 27.9248 19.7673C27.9909 18.2747 28.0091 17.7985 28.0091 13.9954C28.0091 10.1924 27.9909 9.71615 27.9248 8.22363C27.8989 7.06195 27.6787 5.9128 27.2731 4.82389C26.9214 3.8898 26.37 3.04372 25.6575 2.34473C24.9599 1.63115 24.1134 1.0803 23.1784 0.731445C22.0869 0.324254 20.9343 0.10543 19.7695 0.0843099C18.2747 0.0159505 17.8008 0 13.9977 0H14.0023ZM12.7445 2.52246H14.0023C17.7393 2.52246 18.1813 2.53613 19.6579 2.60449C20.5457 2.6146 21.4251 2.77723 22.2578 3.08529C22.8657 3.30987 23.4155 3.66807 23.8665 4.13346C24.331 4.58528 24.689 5.13481 24.9147 5.74219C25.2228 6.57488 25.3854 7.45433 25.3955 8.34212C25.4639 9.81641 25.4775 10.2607 25.4775 13.9977C25.4775 17.7347 25.4639 18.1768 25.3955 19.6533C25.3856 20.5404 25.223 21.4191 24.9147 22.251C24.6815 22.8543 24.3246 23.4021 23.8671 23.8593C23.4095 24.3165 22.8613 24.6729 22.2578 24.9056C21.4257 25.216 20.546 25.3795 19.6579 25.3887C18.1836 25.457 17.7393 25.4707 14.0023 25.4707C10.2653 25.4707 9.82096 25.457 8.3444 25.3887C7.45647 25.3778 6.57702 25.2144 5.74446 24.9056C5.13593 24.682 4.58538 24.3246 4.13346 23.8597C3.66889 23.4084 3.31148 22.8587 3.08756 22.251C2.77873 21.4184 2.61533 20.539 2.60449 19.651C2.53841 18.1745 2.52474 17.7324 2.52474 13.9932C2.52474 10.2539 2.53841 9.81413 2.60449 8.33757C2.61396 7.44951 2.77741 6.56982 3.08756 5.73763C3.31148 5.12991 3.66889 4.58017 4.13346 4.12891C4.58574 3.66395 5.13613 3.30584 5.74446 3.08073C6.57728 2.77285 7.45657 2.60948 8.3444 2.59766C9.63639 2.54069 10.1354 2.52246 12.7445 2.52018V2.52246ZM21.474 4.84668C21.1413 4.84668 20.816 4.94536 20.5394 5.13025C20.2629 5.31513 20.0473 5.5779 19.9201 5.88531C19.7929 6.19272 19.7597 6.53096 19.8248 6.85723C19.8899 7.1835 20.0503 7.48314 20.2857 7.71823C20.5211 7.95332 20.8209 8.1133 21.1473 8.17793C21.4736 8.24256 21.8118 8.20893 22.1191 8.0813C22.4263 7.95367 22.6888 7.73778 22.8733 7.46093C23.0578 7.18409 23.156 6.85874 23.1556 6.52604C23.1556 6.30531 23.1121 6.08675 23.0275 5.88285C22.943 5.67895 22.8191 5.49372 22.6629 5.33775C22.5067 5.18177 22.3213 5.05812 22.1173 4.97386C21.9133 4.8896 21.6947 4.84638 21.474 4.84668ZM14.0023 6.81087C12.5804 6.81087 11.1905 7.23251 10.0082 8.02246C8.82596 8.81241 7.90452 9.9352 7.36039 11.2488C6.81626 12.5625 6.67389 14.008 6.95129 15.4025C7.22868 16.7971 7.91338 18.0781 8.9188 19.0835C9.92421 20.0889 11.2052 20.7736 12.5997 21.051C13.9943 21.3284 15.4398 21.186 16.7534 20.6419C18.0671 20.0978 19.1899 19.1763 19.9798 17.9941C20.7698 16.8118 21.1914 15.4219 21.1914 14C21.1908 12.0935 20.4332 10.2653 19.0851 8.91719C17.737 7.56909 15.9088 6.81148 14.0023 6.81087ZM14.0023 9.33333C14.9255 9.33198 15.8285 9.60453 16.5968 10.1165C17.3651 10.6284 17.9643 11.3568 18.3186 12.2094C18.6728 13.062 18.7662 14.0005 18.5869 14.9062C18.4076 15.8119 17.9637 16.6441 17.3114 17.2974C16.659 17.9507 15.8275 18.3959 14.922 18.5765C14.0166 18.7571 13.078 18.6651 12.2248 18.3121C11.3717 17.9591 10.6425 17.3609 10.1294 16.5934C9.61631 15.8258 9.34245 14.9233 9.34245 14C9.34486 12.7651 9.83665 11.5815 10.7101 10.7085C11.5835 9.83547 12.7674 9.34425 14.0023 9.34245V9.33333Z" fill="#1A1A1A"/>
</g>
<defs>
<clipPath id="clip0_65_909">
<rect width="28" height="28" fill="white"/>
</clipPath>
</defs>
</svg>
