<svg width="28" height="28" viewBox="0 0 28 28" fill="none" xmlns="http://www.w3.org/2000/svg">
<g clip-path="url(#clip0_65_905)">
<path fill-rule="evenodd" clip-rule="evenodd" d="M10.0005 9.00005H15.5332V11.8364H15.6132C16.3837 10.4542 18.2678 9.00005 21.0773 9.00005C26.9195 9.00005 28 12.6358 28 17.3655V27.0001H22.2301V18.4595C22.2301 16.4235 22.1877 13.8026 19.2299 13.8026C16.2256 13.8026 15.7651 16.0189 15.7651 18.3111V27.0001H10.0004V9.00005H10.0005ZM6.00039 4.00008C6.00039 5.65623 4.65635 7.00028 3.00019 7.00028C1.34404 7.00028 -0.000488281 5.65623 -0.000488281 4.00008C-0.000488281 2.34392 1.34404 0.999878 3.00019 0.999878C4.65635 0.999878 6.00039 2.34392 6.00039 4.00008ZM-0.000488281 9.00005H6.00039V27.0001H-0.000488281V9.00005Z" fill="#1A1A1A"/>
</g>
<defs>
<clipPath id="clip0_65_905">
<rect width="28" height="28" fill="white"/>
</clipPath>
</defs>
</svg>
