<svg width="28" height="28" viewBox="0 0 28 28" fill="none" xmlns="http://www.w3.org/2000/svg">
<g clip-path="url(#clip0_65_907)">
<path fill-rule="evenodd" clip-rule="evenodd" d="M28.0005 5.31617C26.9712 5.77659 25.8622 6.08249 24.7043 6.21891C25.8907 5.50841 26.798 4.38241 27.2311 3.042C26.1222 3.69773 24.8898 4.17884 23.584 4.43614C22.534 3.32051 21.0427 2.62708 19.3906 2.62708C16.2184 2.62708 13.6502 5.19678 13.6502 8.36699C13.6502 8.81446 13.6998 9.25214 13.797 9.67432C9.02382 9.43248 4.79228 7.14746 1.95951 3.67086C1.45032 4.54797 1.1822 5.54416 1.18234 6.55836C1.18234 8.54886 2.19305 10.3094 3.73502 11.3362C2.79404 11.3083 1.90889 11.0458 1.13167 10.6205V10.6923C1.13167 13.476 3.11027 15.7987 5.73942 16.3237C5.25782 16.4544 4.74936 16.5268 4.22541 16.5268C3.85441 16.5268 3.4968 16.4886 3.14129 16.424C3.87554 18.7038 5.99523 20.3656 8.50556 20.4142C6.53729 21.9562 4.06524 22.8744 1.37037 22.8744C0.905312 22.8744 0.452149 22.846 -0.000488281 22.7917C2.54703 24.4262 5.56477 25.3728 8.80682 25.3728C19.3689 25.3728 25.1497 16.6198 25.1497 9.03046C25.1497 8.77828 25.144 8.53389 25.1337 8.28688C26.2556 7.48437 27.228 6.47156 27.998 5.31871L28.0006 5.31613L28.0005 5.31617Z" fill="#1A1A1A"/>
</g>
<defs>
<clipPath id="clip0_65_907">
<rect width="28" height="28" fill="white"/>
</clipPath>
</defs>
</svg>
