<svg width="120" height="120" viewBox="0 0 120 120" fill="none" xmlns="http://www.w3.org/2000/svg">
<path d="M41.7535 10H52.4937V14.4922H46.2449V18.9844H52.4937V23.4766H41.7535V10Z" fill="#1A1A1A"/>
<path d="M54.6417 10H65.3819V13.9062H59.1331V14.6875H65.3819V23.6719H54.6417V19.5703H60.8906V18.7891H54.6417V10Z" fill="#1A1A1A"/>
<path d="M67.5302 10H78.2703V13.9062H72.0215V14.6875H78.2703V23.6719H67.5302V19.5703H73.779V18.7891H67.5302V10Z" fill="#1A1A1A"/>
<path fill-rule="evenodd" clip-rule="evenodd" d="M89.4637 101.957L95.9168 29.6523H25.0835L31.5298 101.968L60.4568 110L89.4637 101.957ZM38.2644 44.4346L39.0705 53.3039H72.9648L72.1579 62.3861L39.8613 62.3862L40.6561 71.2554L71.3889 71.2553L70.3596 82.758L60.4695 85.4279L60.4614 85.4308L50.5855 82.7636L49.9542 75.6899H41.0525L42.2948 89.6159L60.4594 94.6595L60.5002 94.6481V94.6468L78.6485 89.616L80.8657 64.7678L81.0821 62.3861L82.6829 44.4346H38.2644Z" fill="#1A1A1A"/>
</svg>
