<svg width="120" height="120" viewBox="0 0 120 120" fill="none" xmlns="http://www.w3.org/2000/svg">
<path d="M43.3286 110C52.5268 110 59.9919 102.533 59.9919 93.3333V76.6667H43.3286C34.1304 76.6667 26.6653 84.1333 26.6653 93.3333C26.6653 102.533 34.1304 110 43.3286 110Z" fill="#1A1A1A"/>
<path d="M26.6653 59.9999C26.6653 50.7999 34.1304 43.3333 43.3286 43.3333H59.9919V76.6666H43.3286C34.1304 76.6666 26.6653 69.1999 26.6653 59.9999Z" fill="#1A1A1A"/>
<path d="M26.6653 26.6667C26.6653 17.4667 34.1304 10 43.3286 10H59.9919V43.3333H43.3286C34.1304 43.3333 26.6653 35.8667 26.6653 26.6667Z" fill="#1A1A1A"/>
<path d="M59.9919 10H76.6553C85.8535 10 93.3186 17.4667 93.3186 26.6667C93.3186 35.8667 85.8535 43.3333 76.6553 43.3333H59.9919V10Z" fill="#1A1A1A"/>
<path d="M93.3186 59.9999C93.3186 69.1999 85.8535 76.6666 76.6553 76.6666C67.4571 76.6666 59.9919 69.1999 59.9919 59.9999C59.9919 50.7999 67.4571 43.3333 76.6553 43.3333C85.8535 43.3333 93.3186 50.7999 93.3186 59.9999Z" fill="#1A1A1A"/>
</svg>
