<svg width="120" height="120" viewBox="0 0 120 120" fill="none" xmlns="http://www.w3.org/2000/svg">
<path fill-rule="evenodd" clip-rule="evenodd" d="M60 11C32.375 11 10 33.2527 10 60.7267C10 82.7308 24.3125 101.316 44.1875 107.905C46.6875 108.34 47.625 106.848 47.625 105.543C47.625 104.362 47.5625 100.446 47.5625 96.2814C35 98.5812 31.75 93.2356 30.75 90.4385C30.1875 89.0088 27.75 84.5956 25.625 83.4146C23.875 82.4822 21.375 80.1823 25.5625 80.1202C29.5 80.058 32.3125 83.7254 33.25 85.2172C37.75 92.7383 44.9375 90.625 47.8125 89.3196C48.25 86.0874 49.5625 83.9118 51 82.6687C39.875 81.4255 28.25 77.1366 28.25 58.1161C28.25 52.7083 30.1875 48.2329 33.375 44.752C32.875 43.5089 31.125 38.4119 33.875 31.5744C33.875 31.5744 38.0625 30.2691 47.625 36.6714C51.625 35.5526 55.875 34.9932 60.125 34.9932C64.375 34.9932 68.625 35.5526 72.625 36.6714C82.1875 30.207 86.375 31.5744 86.375 31.5744C89.125 38.4119 87.375 43.5089 86.875 44.752C90.0625 48.2329 92 52.6462 92 58.1161C92 77.1987 80.3125 81.4255 69.1875 82.6687C71 84.2226 72.5625 87.2062 72.5625 91.8681C72.5625 98.5191 72.5 103.865 72.5 105.543C72.5 106.848 73.4375 108.402 75.9375 107.905C95.6875 101.316 110 82.6687 110 60.7267C110 33.2527 87.625 11 60 11Z" fill="#1A1A1A"/>
</svg>
