<svg width="120" height="120" viewBox="0 0 120 120" fill="none" xmlns="http://www.w3.org/2000/svg">
<path d="M30.7078 10H35.2723V14.4531H39.4795V10H44.044V23.4766H39.4795V18.9844H35.312V23.4766H30.7078V10ZM50.0771 14.4922H46.0484V10H58.6901V14.4922H54.6416V23.4766H50.0771V14.4922ZM60.6945 10H65.4773L68.4145 14.7461L71.3516 10H76.1344V23.4766H71.5699V16.7969L68.3748 21.6406L65.1796 16.7969V23.4766H60.6945V10ZM78.3968 10H82.9613V19.0234H89.431V23.4766H78.3968" fill="#1A1A1A"/>
<path fill-rule="evenodd" clip-rule="evenodd" d="M30.5491 101.992L24 29.6484H96L89.4509 101.953L59.9405 110L30.5491 101.992ZM37.376 44.4336H59.9602V53.3008L47.2591 53.3008L48.0926 62.3828H59.9602V71.2305H39.8368L37.376 44.4336ZM60 62.3828V71.2305H59.9602V71.25H71.0738L70.0219 82.7734L59.9801 85.4244L49.9184 82.7734L49.2834 75.6836H40.2337L41.5039 89.6094L60 94.6875V94.6376L78.4167 89.6094L80.8974 62.3828H60ZM60 94.6376V85.4297L59.9801 85.4244L59.9602 85.4297V94.6484L60 94.6376ZM60 53.3008L81.711 53.3008L82.5446 44.4336H60V53.3008Z" fill="#1A1A1A"/>
</svg>
