<svg width="120" height="120" viewBox="0 0 120 120" fill="none" xmlns="http://www.w3.org/2000/svg">
<path d="M60.1811 70.012H44.2974L41.0657 80.0574C41.0217 80.2406 40.9152 80.4026 40.7646 80.5157C40.6139 80.6287 40.4286 80.6856 40.2406 80.6766H32.1956C31.7369 80.6766 31.5764 80.4243 31.7143 79.9198L45.4663 40.289C45.6039 39.8762 45.7415 39.4061 45.879 38.8785C46.0589 37.9605 46.1509 37.0275 46.154 36.092C46.1447 36.0266 46.1507 35.9599 46.1716 35.8972C46.1925 35.8345 46.2277 35.7776 46.2744 35.7308C46.3211 35.6841 46.378 35.6489 46.4407 35.628C46.5033 35.607 46.57 35.601 46.6353 35.6103H57.5681C57.8884 35.6103 58.0718 35.725 58.1182 35.9544L73.727 79.9885C73.8644 80.4476 73.7268 80.677 73.3143 80.6766H64.3754C64.2218 80.6936 64.0674 80.6541 63.9408 80.5655C63.8143 80.4769 63.7244 80.3452 63.6878 80.195L60.1811 70.012ZM46.7728 61.3429H57.6369C57.3619 60.4259 57.041 59.3938 56.6743 58.2467C56.3069 57.1007 55.9173 55.8737 55.5055 54.5657C55.0928 53.2585 54.6801 51.9512 54.2676 50.6439C53.8551 49.3367 53.477 48.0753 53.1332 46.8597C52.7893 45.6449 52.4799 44.5326 52.205 43.5228H52.1361C51.749 45.381 51.2671 47.2181 50.6922 49.027C50.0497 51.0911 49.3965 53.2011 48.7324 55.3569C48.0674 57.5135 47.4142 59.5088 46.7728 61.3429H46.7728Z" fill="#1A1A1A"/>
<path d="M83.0087 42.9035C82.3074 42.9317 81.608 42.8115 80.9563 42.5506C80.3047 42.2898 79.7153 41.8942 79.2269 41.3899C78.7398 40.8636 78.3615 40.2462 78.1136 39.5732C77.8658 38.9002 77.7534 38.1847 77.7828 37.4681C77.7578 36.7585 77.8827 36.0516 78.1493 35.3936C78.4159 34.7356 78.8182 34.1413 79.3299 33.6495C79.8367 33.1627 80.4349 32.7814 81.09 32.5274C81.745 32.2735 82.4439 32.1521 83.1461 32.1702C84.7965 32.1702 86.0915 32.6633 87.0312 33.6495C87.5055 34.162 87.8741 34.763 88.116 35.4183C88.3579 36.0735 88.4682 36.7701 88.4407 37.4681C88.4694 38.1875 88.3534 38.9054 88.0994 39.5791C87.8455 40.2529 87.4588 40.8686 86.9624 41.3899C86.4435 41.9016 85.8244 42.3004 85.1439 42.5609C84.4635 42.8214 83.7365 42.9381 83.0087 42.9035ZM78.2641 79.9885V47.1005C78.2641 46.6877 78.4468 46.4812 78.8142 46.4812H87.2718C87.6382 46.4812 87.8216 46.6876 87.822 47.1005V79.9885C87.822 80.4476 87.6386 80.6769 87.2718 80.6766H78.883C78.4705 80.6766 78.2642 80.4472 78.2641 79.9885Z" fill="#1A1A1A"/>
</svg>
