<svg width="120" height="120" viewBox="0 0 120 120" fill="none" xmlns="http://www.w3.org/2000/svg">
<path d="M73.1452 10.012C73.1332 10.9925 73.0854 11.9611 73.1332 12.9297C73.1571 13.5036 72.9538 13.6113 72.4397 13.5993C70.7656 13.5754 69.0915 13.5873 67.4532 13.5873C67.3576 13.9222 67.5489 13.9939 67.6446 14.0896C69.4263 16.0267 71.208 17.952 73.0136 19.8772C73.2648 20.1402 73.3843 20.4033 73.3724 20.774C73.3485 21.4915 73.3485 22.2089 73.3724 22.9264C73.3843 23.2732 73.3126 23.4047 72.918 23.4047C68.9958 23.3928 65.0736 23.3928 61.1515 23.4047C60.7688 23.4047 60.6851 23.2971 60.6971 22.9384C60.721 22.0415 60.7329 21.1447 60.6971 20.2479C60.6851 19.8533 60.8406 19.8054 61.1754 19.8054C62.8614 19.7935 64.5595 19.8772 66.2455 19.7217C66.3531 19.7098 66.4727 19.6978 66.6879 19.6619C66.2814 19.1836 65.9346 18.777 65.5878 18.3944C64.0811 16.7442 62.5864 15.106 61.0678 13.4678C60.8047 13.1808 60.6971 12.9058 60.709 12.5111C60.7449 11.6741 60.7329 10.837 60.7329 10C64.8584 10.012 68.9958 10.012 73.1452 10.012Z" fill="#1A1A1A"/>
<path d="M58.5566 10.012C58.5447 14.2331 58.5327 18.4542 58.5566 22.6753C58.5566 23.3091 58.3773 23.4047 57.8033 23.4047C54.5508 23.3808 51.3102 23.3808 48.0577 23.4047C47.6391 23.4047 47.5196 23.2971 47.5315 22.8786C47.5554 21.7067 47.5674 20.5229 47.5315 19.351C47.5196 18.9086 47.663 18.8368 48.0696 18.8488C49.8633 18.8727 51.657 18.8488 53.4506 18.8727C53.8931 18.8847 54.0127 18.789 54.0127 18.3227C53.9887 15.5484 54.0127 12.7862 54.0127 10.012C55.5313 10.012 57.038 10.012 58.5566 10.012Z" fill="#1A1A1A"/>
<path fill-rule="evenodd" clip-rule="evenodd" d="M95.1237 29.5989H60.446C48.9545 29.5989 37.4511 29.5989 25.9715 29.5869C25.9202 29.5869 25.8675 29.5882 25.8143 29.5896C25.7067 29.5922 25.5973 29.5949 25.4932 29.5869C25.1704 29.5511 25.0867 29.6826 25.0747 29.9935C25.0583 30.4852 25.1037 30.9713 25.1493 31.4595C25.1702 31.6836 25.1912 31.9082 25.2062 32.1339C25.3258 33.7602 25.4574 35.3865 25.6009 37.0127C25.6905 38.059 25.7862 39.1083 25.8819 40.1576C25.9775 41.2069 26.0732 42.2562 26.1629 43.3026C26.2331 44.0629 26.2975 44.8204 26.3619 45.5765C26.4291 46.3661 26.4961 47.1541 26.5694 47.9422C26.6548 48.8983 26.7429 49.8571 26.8311 50.8173C26.9282 51.8747 27.0255 52.9338 27.1195 53.9929C27.2092 54.9913 27.2929 55.9928 27.3766 56.9943C27.4603 57.9957 27.544 58.9972 27.6337 59.9957C27.8131 62.0883 28.0044 64.1929 28.1957 66.2855C28.3392 67.7802 28.4707 69.2869 28.6023 70.7936C28.692 71.7921 28.7846 72.7906 28.8773 73.7891C28.97 74.7875 29.0626 75.786 29.1523 76.7845C29.242 77.783 29.3257 78.7844 29.4094 79.7859C29.4931 80.7874 29.5768 81.7888 29.6665 82.7873C29.7562 83.7858 29.8519 84.7843 29.9475 85.7828C30.0432 86.7812 30.1389 87.7797 30.2285 88.7782C30.3182 89.7886 30.4049 90.799 30.4916 91.8095C30.5783 92.8199 30.665 93.8304 30.7547 94.8408C30.8219 95.5986 30.8942 96.3565 30.9666 97.1143C31.0871 98.3773 31.2076 99.6404 31.3047 100.903C31.3079 100.943 31.311 100.981 31.3139 101.017C31.3993 102.076 31.4009 102.097 32.4527 102.386C34.0422 102.829 35.6313 103.272 37.2201 103.715C44.5124 105.747 51.7995 107.777 59.0947 109.8C59.7644 109.991 60.3981 110.087 61.1276 109.896C68.7686 107.899 76.3858 105.758 83.9909 103.618L84.0777 103.594C85.6874 103.147 87.3074 102.698 88.8697 102.087C88.8935 102.078 88.9175 102.069 88.9415 102.06C89.2318 101.951 89.5301 101.839 89.5633 101.442C89.635 100.533 89.7186 99.625 89.8023 98.7167L89.8024 98.7151C89.8861 97.7768 89.9728 96.8354 90.0594 95.8941C90.1462 94.9521 90.2329 94.0101 90.3166 93.071C90.4303 91.821 90.5439 90.574 90.6575 89.327C90.7711 88.0808 90.8847 86.8346 90.9982 85.5854C91.0879 84.6049 91.1716 83.6244 91.2553 82.6438C91.339 81.6633 91.4227 80.6827 91.5124 79.7022C91.6779 77.7606 91.8535 75.8291 92.03 73.8891L92.0744 73.4004C92.1578 72.4413 92.2412 71.4852 92.3246 70.5291C92.4086 69.566 92.4926 68.6029 92.5766 67.6367C92.7559 65.5215 92.9471 63.4062 93.1383 61.291L93.1387 61.2871C93.196 60.6243 93.2518 59.96 93.3078 59.2953C93.4153 58.0174 93.5229 56.738 93.6409 55.4637C93.7306 54.4353 93.8262 53.4069 93.9219 52.3786C94.0176 51.3502 94.1132 50.3218 94.2029 49.2934C94.2601 48.6109 94.316 47.9269 94.3718 47.2425C94.4794 45.9246 94.5871 44.605 94.7051 43.2906C94.7927 42.2806 94.886 41.2678 94.9794 40.2535C95.0773 39.1903 95.1754 38.1254 95.2672 37.0606C95.3326 36.3038 95.3967 35.5456 95.4607 34.787C95.584 33.3281 95.7074 31.8674 95.8411 30.412C95.9129 29.6348 95.9009 29.5989 95.1237 29.5989ZM70.395 38.7466C67.0827 38.7226 63.7823 38.7107 60.47 38.6987C57.3251 38.7107 54.1802 38.7107 51.0592 38.7107C48.8589 38.7107 46.6707 38.7226 44.4824 38.8183C44.016 38.8422 43.741 38.9379 43.7171 39.5238C43.6772 40.3529 43.5842 41.182 43.4912 42.011C43.4447 42.4256 43.3982 42.8401 43.3583 43.2547C43.167 45.1918 42.9757 47.129 42.7963 49.0662C42.6169 51.0153 42.4495 52.9525 42.2821 54.8896C42.1865 55.93 42.0938 56.9673 42.0011 58.0046C41.9084 59.042 41.8158 60.0793 41.7201 61.1197C41.6723 61.6538 41.6218 62.1879 41.5713 62.722C41.4703 63.7902 41.3693 64.8585 41.2896 65.9267C41.246 66.5808 41.1849 67.2365 41.1237 67.8932C41.0171 69.0373 40.9102 70.1845 40.895 71.3316C41.0049 71.4141 41.1289 71.4053 41.2507 71.3967C41.2879 71.3941 41.325 71.3914 41.3614 71.3914C43.9913 71.4241 46.6194 71.4112 49.247 71.3983C53.3459 71.3781 57.4438 71.358 61.5462 71.511C63.4977 71.5842 65.4492 71.5634 67.4007 71.5426C68.3191 71.5328 69.2375 71.523 70.1558 71.523C70.5344 71.523 70.924 71.534 71.2296 71.7989L71.2199 71.822C71.0632 72.4752 71.0079 73.1347 70.9525 73.7959C70.9318 74.0426 70.9111 74.2896 70.8851 74.5364C70.6538 76.8828 70.4326 79.2393 70.2122 81.5873L70.1557 82.1894C70.1198 82.5721 69.9404 82.7515 69.5817 82.8471C69.1458 82.9668 68.7161 83.1048 68.2837 83.2436L68.2825 83.244L68.2815 83.2443C68.1096 83.2995 67.9374 83.3548 67.7641 83.4091C67.7579 83.4169 67.7515 83.4245 67.7451 83.4318C67.4768 83.2525 67.2162 83.3364 66.9632 83.4178C66.907 83.436 66.8511 83.454 66.7955 83.4689C65.2403 83.9092 63.6778 84.2981 62.1137 84.6875L62.1121 84.6879C61.6803 84.7954 61.2485 84.9028 60.8166 85.0115C60.7999 85.0152 60.7832 85.0187 60.7665 85.0222L60.7144 85.033C60.534 85.0699 60.3577 85.106 60.2068 85.2267C60.151 85.2227 60.0925 85.2227 60.0331 85.2227C59.9145 85.2227 59.7922 85.2227 59.6806 85.1908C58.7968 84.9544 57.913 84.7169 57.0288 84.4793L57.023 84.4777L57.0164 84.4759L57.0135 84.4752C54.9959 83.9329 52.9765 83.3902 50.9514 82.859C50.6046 82.7634 50.4492 82.596 50.4253 82.2492C50.3631 81.4648 50.2971 80.6804 50.2311 79.896C50.1321 78.7193 50.0331 77.5426 49.947 76.366C49.9111 75.8637 49.7317 75.7441 49.2534 75.7441C47.5238 75.7621 45.7875 75.7598 44.0546 75.7576H44.0447C43.4686 75.7569 42.8929 75.7561 42.3179 75.7561H42.2828C41.5047 75.7561 41.116 75.756 40.9419 75.9493C40.7681 76.1421 40.8079 76.5273 40.8873 77.2967L40.8949 77.3704C41.0452 78.8916 41.176 80.4194 41.3064 81.944C41.3523 82.4805 41.3983 83.0173 41.4449 83.5526C41.6124 85.43 41.8396 87.3074 42.0907 89.1728C42.1505 89.5913 42.3418 89.8065 42.7723 89.9261C44.8867 90.5104 46.9931 91.1108 49.0984 91.711L49.0997 91.7113C50.6134 92.1429 52.1266 92.5742 53.6419 92.9993C54.1701 93.1462 54.6976 93.2957 55.2251 93.4452C56.9307 93.9287 58.6361 94.4122 60.3622 94.8049C60.9867 94.6369 61.6112 94.4695 62.2355 94.3022L62.2383 94.3015L62.2393 94.3012C64.2795 93.7544 66.3185 93.2079 68.3501 92.6405C68.7595 92.5271 69.1703 92.4162 69.5814 92.3053C70.9473 91.9366 72.3174 91.5667 73.6593 91.098L73.6565 91.0958C74.8812 90.8011 76.0833 90.416 77.2869 90.0305L77.2884 90.0301C77.5969 89.9312 77.9062 89.8322 78.2153 89.7348C78.4783 89.6511 78.6099 89.5076 78.6338 89.2206C78.7106 88.4525 78.7887 87.683 78.8668 86.9132L78.8671 86.9097C79.032 85.2839 79.1972 83.6562 79.3513 82.034C79.4828 80.6052 79.6053 79.1793 79.7279 77.7534L79.7281 77.7513C79.8506 76.3259 79.9731 74.9005 80.1046 73.4722C80.4274 69.9691 80.7741 66.466 81.1209 62.9629L81.121 62.9613C81.1449 62.6503 81.0373 62.5188 80.7384 62.4949C80.5568 62.4831 80.3739 62.4673 80.1906 62.4515C79.8186 62.4195 79.4447 62.3873 79.0762 62.3873C73.1212 62.3514 67.1662 62.3275 61.2112 62.3036C60.9759 62.3036 60.7405 62.292 60.5052 62.2802L60.5057 62.2916L60.4938 62.2797C60.4212 62.3017 60.3485 62.3147 60.2759 62.3217L60.2698 62.3275L60.263 62.3229C60.1382 62.3339 60.0135 62.3281 59.8887 62.3223C59.8154 62.3189 59.742 62.3155 59.6687 62.3155H51.4417C51.4018 62.3177 51.3616 62.3212 51.3212 62.3246C51.1432 62.3398 50.9616 62.3554 50.796 62.2677C50.757 61.4335 50.8502 60.6095 50.9429 59.789C50.9925 59.351 51.0419 58.914 51.071 58.477C51.1342 57.5132 51.2392 56.5494 51.3445 55.5821C51.3986 55.0855 51.4528 54.5874 51.5015 54.0885L51.5423 53.6687C51.696 52.0884 51.8489 50.5166 51.9918 48.9347C52.0276 48.5281 52.2787 48.5281 52.5777 48.5281C53.1643 48.5121 53.7522 48.4973 54.3406 48.4826C55.5033 48.4535 56.6681 48.4243 57.8272 48.3846C58.1664 48.3729 58.5055 48.3584 58.8461 48.3438L58.8472 48.3437C59.2027 48.3285 59.5597 48.3131 59.9198 48.3009C59.9637 48.3009 60.0089 48.2971 60.0543 48.2933C60.2068 48.2806 60.362 48.2676 60.4818 48.3966V48.3987L60.5059 48.3965C61.1136 48.4109 61.7225 48.4221 62.3318 48.4332C63.7483 48.4591 65.1674 48.4851 66.5804 48.552C67.9077 48.6118 69.2351 48.6716 70.5624 48.839C70.9929 48.8988 71.1125 49.0662 71.1603 49.4727C71.4831 52.0915 71.7223 54.7222 71.9495 57.3529C71.9518 57.3925 71.9501 57.4348 71.9483 57.4774C71.9411 57.6516 71.9336 57.8316 72.2028 57.8544C72.3398 57.9582 72.4948 57.9689 72.6634 57.9805C72.7265 57.9848 72.7916 57.9893 72.8583 57.9988C74.1677 58.0107 75.48 58.0167 76.7924 58.0227C78.1048 58.0287 79.4172 58.0347 80.7265 58.0466C81.3125 58.0466 81.2168 57.7477 81.0853 57.4009C81.0627 57.3873 81.0437 57.3728 81.0277 57.3575C81.0421 57.3604 81.0573 57.3629 81.0733 57.3649C80.9418 55.8463 80.8132 54.3306 80.6847 52.8149C80.5562 51.2993 80.4276 49.7836 80.2961 48.265C80.2084 47.2804 80.118 46.2957 80.0277 45.3111C79.847 43.3421 79.6663 41.3732 79.5069 39.4042C79.471 38.9498 79.3634 38.7944 78.885 38.7944C77.186 38.7944 75.4912 38.7815 73.7956 38.7686H73.7943C72.6621 38.76 71.5295 38.7513 70.395 38.7466Z" fill="#1A1A1A"/>
</svg>
