<svg width="120" height="120" viewBox="0 0 120 120" fill="none" xmlns="http://www.w3.org/2000/svg">
<path d="M59.4264 90.245C59.0964 90.245 58.7686 90.1585 58.4792 89.9919L55.4643 88.2069C55.014 87.9551 55.2338 87.866 55.3823 87.8147C55.9827 87.6045 56.1045 87.557 56.7454 87.1931C56.8128 87.1546 56.9009 87.1682 56.9699 87.2089L59.286 88.5833C59.3697 88.6285 59.4883 88.6285 59.5659 88.5833L68.5968 83.3705C68.6804 83.323 68.7347 83.2258 68.7347 83.1263V72.7052C68.7347 72.6012 68.6804 72.5085 68.595 72.4565L59.5677 67.2482C59.484 67.1985 59.3733 67.1985 59.2896 67.2482L50.2642 72.4565C50.1767 72.5063 50.1211 72.6035 50.1211 72.7029V83.1241C50.1211 83.2236 50.1753 83.3185 50.2612 83.366L52.7343 84.7946C54.077 85.466 54.8976 84.6748 54.8976 83.8791V73.5936C54.8976 73.4467 55.0129 73.3336 55.1598 73.3336H56.3037C56.4461 73.3336 56.5636 73.4467 56.5636 73.5936V83.8836C56.5636 85.674 55.5871 86.7025 53.8894 86.7025C53.3672 86.7025 52.9558 86.7025 51.8074 86.1374L49.4384 84.772C48.8529 84.4329 48.4912 83.8 48.4912 83.1241V72.7029C48.4912 72.0248 48.8529 71.3918 49.4384 71.0573L58.4783 65.8422C59.0502 65.5189 59.8098 65.5189 60.3772 65.8422L69.4058 71.0595C69.9891 71.3964 70.353 72.027 70.353 72.7052V83.1263C70.353 83.8023 69.9891 84.4329 69.4058 84.772L60.3772 89.9871C60.0878 90.1544 59.7601 90.2403 59.4255 90.2403" fill="#1A1A1A"/>
<path d="M62.216 83.0642C58.2645 83.0642 57.436 81.2504 57.436 79.729C57.436 79.5844 57.5527 79.4691 57.6976 79.4691H58.864C58.9929 79.4691 59.1014 79.5629 59.1217 79.6901C59.2981 80.8787 59.8225 81.4782 62.2119 81.4782C64.1153 81.4782 64.9246 81.0483 64.9246 80.039C64.9246 79.458 64.694 79.0262 61.7372 78.7369C59.2641 78.4927 57.736 77.9479 57.736 75.97C57.736 74.148 59.2732 73.0629 61.848 73.0629C64.7392 73.0629 66.1724 74.0666 66.3532 76.2231C66.36 76.2977 66.3329 76.3701 66.2832 76.4243C66.2334 76.4763 66.1633 76.508 66.091 76.508H64.9178C64.7957 76.508 64.6895 76.4221 64.6646 76.3045C64.382 75.0544 63.6993 74.6543 61.8434 74.6543C59.766 74.6543 59.5241 75.3777 59.5241 75.9202C59.5241 76.578 59.8089 76.7702 62.612 77.1409C65.388 77.5094 66.7059 78.0293 66.7059 79.9802C66.7059 81.9469 65.0647 83.0749 62.2029 83.0749L62.216 83.0642ZM73.2027 72.023H73.5056C73.7543 72.023 73.8018 71.849 73.8018 71.7472C73.8018 71.4805 73.6186 71.4805 73.5169 71.4805H73.205L73.2027 72.023ZM72.8342 71.1685H73.5056C73.7362 71.1685 74.1883 71.1685 74.1883 71.684C74.1883 72.0434 73.9577 72.118 73.8198 72.1632C74.0888 72.1813 74.1069 72.3576 74.1431 72.6063C74.1612 72.7622 74.1906 73.0312 74.2448 73.1217H73.8311C73.8198 73.0312 73.7565 72.5339 73.7565 72.5068C73.7294 72.396 73.691 72.3418 73.5531 72.3418H73.2117V73.1239H72.8342V71.1685ZM72.0272 72.1406C72.0272 72.9499 72.6805 73.6054 73.483 73.6054C74.2923 73.6054 74.9456 72.9363 74.9456 72.1406C74.9456 71.329 74.2832 70.6848 73.4808 70.6848C72.6896 70.6848 72.025 71.32 72.025 72.1383L72.0272 72.1406ZM75.2259 72.1451C75.2259 73.1036 74.4415 73.8857 73.4853 73.8857C72.5358 73.8857 71.7446 73.1126 71.7446 72.1451C71.7446 71.1595 72.5539 70.4045 73.4853 70.4045C74.4234 70.4045 75.2236 71.1618 75.2236 72.1451" fill="#1A1A1A"/>
<path fill-rule="evenodd" clip-rule="evenodd" d="M31.4608 49.4692C31.4608 49.0533 31.2415 48.6713 30.8825 48.4644L21.3077 42.9555C21.1461 42.8605 20.965 42.8108 20.7815 42.804H20.6825C20.4989 42.8108 20.3178 42.8605 20.1535 42.9555L10.5792 48.4644C10.2224 48.6724 10 49.0544 10 49.4704L10.021 64.3086C10.021 64.5143 10.1273 64.7065 10.3081 64.8082C10.4844 64.9167 10.706 64.9167 10.8823 64.8082L16.5744 61.5485C16.9338 61.3346 17.1531 60.9567 17.1531 60.5448V53.6128C17.1531 53.1992 17.3723 52.8171 17.7306 52.6114L20.1539 51.2157C20.3339 51.1118 20.5315 51.0602 20.7326 51.0602C20.9307 51.0602 21.1328 51.1113 21.3077 51.2155L23.7299 52.6107C24.0884 52.8164 24.3086 53.1985 24.3086 53.6122V60.5437C24.3086 60.9551 24.5308 61.3349 24.8884 61.5474L30.5769 64.8048C30.7555 64.9111 30.9777 64.9111 31.1556 64.8048C31.331 64.7031 31.4422 64.5109 31.4422 64.3052L31.4608 49.4692ZM76.642 57.1949C76.642 57.2982 76.587 57.3938 76.4973 57.4449L73.2086 59.3406C73.1193 59.3919 73.009 59.3919 72.92 59.3406L69.6309 57.4449C69.5404 57.3936 69.4862 57.298 69.4862 57.1949V53.3981C69.4862 53.2945 69.5404 53.1992 69.6286 53.1472L72.9154 51.2483C73.0059 51.1963 73.1166 51.1963 73.207 51.2483L76.4961 53.1472C76.5866 53.1992 76.6408 53.2945 76.6408 53.3981L76.642 57.1949ZM77.5304 29.0732C77.3509 28.9733 77.1325 28.976 76.9553 29.0793C76.7789 29.1833 76.67 29.3732 76.67 29.5789V44.2725C76.67 44.4171 76.5931 44.5505 76.4679 44.6228C76.3436 44.6952 76.1887 44.6952 76.0632 44.6228L73.6648 43.2414C73.3076 43.0348 72.8677 43.0348 72.5092 43.2414L62.9313 48.7691C62.5734 48.9749 62.3526 49.3569 62.3526 49.7683V60.8269C62.3526 61.2406 62.5734 61.6204 62.9313 61.8284L72.5092 67.3599C72.8668 67.5656 73.3072 67.5656 73.6659 67.3599L83.2439 61.8261C83.6011 61.6181 83.8226 61.2383 83.8226 60.8247V33.264C83.8226 32.8445 83.5943 32.4586 83.2281 32.2536L77.5304 29.0732ZM109.425 53.2982C109.781 53.0916 110 52.71 110 52.2985V49.6184C110 49.2061 109.781 48.8257 109.424 48.6181L99.9073 43.0934C99.5479 42.8854 99.1071 42.8854 98.7477 43.0934L89.172 48.6204C88.8125 48.8284 88.5933 49.2081 88.5933 49.6218V60.6759C88.5933 61.0919 88.8171 61.4762 89.1765 61.6819L98.6911 67.1049C99.0415 67.3061 99.471 67.3084 99.8259 67.1117L105.581 63.913C105.762 63.8113 105.877 63.6192 105.877 63.4112C105.877 63.2032 105.767 63.0088 105.586 62.9071L95.9514 57.3778C95.7705 57.2761 95.6597 57.0839 95.6597 56.8782V53.4105C95.6597 53.2034 95.7683 53.0127 95.9491 52.9096L98.9466 51.1803C99.1252 51.0763 99.3445 51.0763 99.523 51.1803L102.523 52.9096C102.701 53.0113 102.812 53.2034 102.812 53.4092V56.1354C102.812 56.3411 102.923 56.5332 103.101 56.6372C103.28 56.739 103.502 56.7389 103.68 56.635L109.425 53.2982Z" fill="#1A1A1A"/>
<path fill-rule="evenodd" clip-rule="evenodd" d="M99.1874 52.781C99.2552 52.741 99.3402 52.741 99.4089 52.781L101.247 53.8412C101.315 53.881 101.358 53.9542 101.358 54.0333V56.156C101.358 56.2351 101.315 56.3084 101.247 56.3481L99.4089 57.4083C99.3402 57.4483 99.2552 57.4483 99.1874 57.4083L97.3507 56.3481C97.2806 56.3084 97.2377 56.2351 97.2377 56.156V54.0333C97.2377 53.9542 97.2784 53.881 97.3484 53.8412L99.1874 52.781Z" fill="#1A1A1A"/>
<path d="M47.8945 43.2414L50.293 44.6229C50.8271 44.9309 51.4296 45.282 52.093 45.6687C53.5724 46.531 55.3549 47.57 57.3592 48.7009C57.7867 48.9421 58.0523 49.3946 58.0523 49.8854L58.0523 60.8247C58.0523 61.2384 57.8308 61.6181 57.4736 61.8261L47.8957 67.3599C47.5369 67.5656 47.0965 67.5656 46.7389 67.3599L37.161 61.8284C36.8031 61.6204 36.5823 61.2406 36.5823 60.827V49.7683C36.5823 49.3569 36.8031 48.9749 37.161 48.7692L46.7389 43.2414C47.0975 43.0348 47.5374 43.0348 47.8945 43.2414Z" fill="#1A1A1A"/>
</svg>
