<svg width="120" height="120" viewBox="0 0 120 120" fill="none" xmlns="http://www.w3.org/2000/svg">
<path d="M30 81.0371V38.1709C30 37.8585 30.1343 37.7013 30.4026 37.7013C31.1173 37.7013 31.7699 37.6908 32.7542 37.6677C33.7375 37.6458 34.7997 37.6234 35.9407 37.6007C37.0812 37.5786 38.2888 37.5563 39.5633 37.5336C40.8377 37.5116 42.1011 37.5004 43.3534 37.5C46.7516 37.5 49.6138 37.9249 51.94 38.7746C54.0384 39.4844 55.952 40.6532 57.5416 42.1958C58.8891 43.533 59.9305 45.1466 60.5938 46.9253C61.2214 48.6562 61.5394 50.4842 61.5331 52.3254C61.5331 55.9039 60.7058 58.8556 59.051 61.1804C57.3854 63.5149 55.044 65.2826 52.3427 66.2452C49.5251 67.2966 46.3942 67.6531 42.951 67.6531C41.9667 67.6531 41.2735 67.6419 40.8713 67.6195C40.4689 67.5975 39.8652 67.5863 39.0602 67.586V80.9701C39.0719 81.0521 39.0644 81.1357 39.0382 81.2143C39.012 81.2929 38.9678 81.3643 38.9092 81.4229C38.8506 81.4815 38.7792 81.5256 38.7006 81.5518C38.622 81.578 38.5384 81.5855 38.4564 81.5738H30.4696C30.1562 81.5738 30 81.3956 30 81.0371ZM39.0602 45.7513V59.7325C39.6408 59.7776 40.1775 59.7999 40.6701 59.7995H42.8838C44.5127 59.7941 46.1308 59.5358 47.6804 59.0338C49.0094 58.6391 50.197 57.8707 51.1016 56.8201C51.9736 55.7919 52.4097 54.3607 52.4098 52.5268C52.4452 51.2291 52.1075 49.9486 51.4369 48.8371C50.7319 47.7624 49.713 46.9309 48.5188 46.4557C46.9595 45.8496 45.2939 45.5644 43.6218 45.6172C42.5483 45.6172 41.598 45.6283 40.7708 45.6507C39.9428 45.6737 39.3726 45.7073 39.0602 45.7513V45.7513Z" fill="#1A1A1A"/>
<path d="M87.4704 57.1903C86.2097 56.5425 84.867 56.0685 83.4789 55.7815C81.9495 55.4305 80.3858 55.2505 78.8167 55.2448C77.9678 55.2217 77.1203 55.3235 76.301 55.5467C75.7795 55.6628 75.3161 55.9599 74.9928 56.3852C74.7742 56.7254 74.6578 57.1212 74.6575 57.5256C74.6697 57.918 74.8112 58.2953 75.0599 58.5989C75.4518 59.0573 75.9306 59.4335 76.4686 59.7058C77.4251 60.2209 78.4107 60.6801 79.4203 61.081C81.6717 61.8347 83.8231 62.8597 85.8268 64.1333C87.1917 64.9948 88.3213 66.182 89.1139 67.5881C89.7804 68.9196 90.1141 70.3928 90.0866 71.8815C90.1268 73.8473 89.565 75.7783 88.4767 77.4159C87.3115 79.0781 85.6931 80.3704 83.8142 81.1389C81.7787 82.0331 79.2631 82.4803 76.2674 82.4807C74.3644 82.4999 72.4645 82.32 70.5989 81.944C69.129 81.6744 67.6981 81.2238 66.3391 80.6023C66.1924 80.5266 66.0703 80.4106 65.9872 80.2681C65.904 80.1255 65.8632 79.9622 65.8695 79.7972V72.5523C65.8614 72.4813 65.8728 72.4096 65.9023 72.3446C65.9319 72.2796 65.9785 72.2239 66.0373 72.1833C66.0949 72.1508 66.1611 72.1365 66.227 72.1425C66.2929 72.1485 66.3554 72.1745 66.4062 72.2169C68.0112 73.1633 69.7539 73.8536 71.5716 74.2629C73.1737 74.6645 74.8171 74.8783 76.4686 74.9002C78.0336 74.9002 79.1852 74.699 79.9234 74.2965C80.2568 74.1439 80.5388 73.8979 80.7353 73.5883C80.9317 73.2788 81.0343 72.9189 81.0304 72.5523C81.0304 71.9716 80.695 71.4126 80.0242 70.8752C79.3534 70.3385 77.9893 69.69 75.932 68.9298C73.8256 68.1966 71.8284 67.1811 69.9951 65.911C68.6838 64.9991 67.604 63.793 66.8422 62.3891C66.1825 61.0672 65.8489 59.6066 65.8695 58.1294C65.8658 56.3544 66.3533 54.6131 67.2782 53.0981C68.3328 51.4299 69.847 50.102 71.6387 49.2744C73.6061 48.2912 76.0658 47.7993 79.0179 47.7985C80.7468 47.7846 82.474 47.908 84.1833 48.1675C85.4211 48.3245 86.6313 48.6518 87.7794 49.1402C87.8705 49.1663 87.9543 49.2133 88.0241 49.2773C88.0939 49.3413 88.1479 49.4207 88.1819 49.5092C88.2272 49.673 88.2498 49.8423 88.249 50.0123V56.7877C88.2537 56.8665 88.2375 56.9452 88.2022 57.0159C88.1669 57.0865 88.1136 57.1466 88.0478 57.1902C87.9581 57.2348 87.8593 57.2581 87.7591 57.2581C87.6589 57.2581 87.5601 57.2349 87.4704 57.1903Z" fill="#1A1A1A"/>
</svg>
