<svg width="120" height="120" viewBox="0 0 120 120" fill="none" xmlns="http://www.w3.org/2000/svg">
<path d="M58.9848 30.0196C41.4177 30.5761 36.1965 43.0828 35 49.8583C36.5591 47.3468 41.4721 41.8362 48.7056 41.8362C57.1356 41.8362 63.5533 51.2136 67.4692 54.1406C72.2267 57.6967 81.7864 62.3921 94.3365 58.5853C104.344 55.5499 108.985 44.9619 110 39.939C105.16 46.4977 97.8173 50.4371 88.7346 45.793C82.4801 42.595 77.8028 29.4235 58.9848 30.0196Z" fill="#1A1A1A"/>
<path d="M33.9848 60.0196C16.4177 60.5761 11.1965 73.0828 10 79.8583C11.5591 77.3468 16.4721 71.8362 23.7056 71.8362C32.1356 71.8362 38.5533 81.2136 42.4692 84.1406C47.2267 87.6967 56.7864 92.3921 69.3365 88.5853C79.3437 85.5499 83.9848 74.9619 85 69.939C80.1595 76.4977 72.8173 80.4371 63.7346 75.793C57.4801 72.595 52.8028 59.4235 33.9848 60.0196Z" fill="#1A1A1A"/>
</svg>
