<svg width="120" height="120" viewBox="0 0 120 120" fill="none" xmlns="http://www.w3.org/2000/svg">
<g clip-path="url(#clip0_65_1708)">
<mask id="mask0_65_1708" style="mask-type:alpha" maskUnits="userSpaceOnUse" x="0" y="0" width="120" height="120">
<path fill-rule="evenodd" clip-rule="evenodd" d="M85.0943 119.181C86.9843 119.917 89.1394 119.87 91.047 118.952L115.753 107.064C118.349 105.814 120 103.187 120 100.305V19.696C120 16.8136 118.349 14.1862 115.753 12.937L91.047 1.04851C88.5434 -0.156156 85.6135 0.138911 83.4162 1.73634C83.1024 1.96453 82.8034 2.21932 82.5228 2.50009L35.2261 45.6498L14.6246 30.0115C12.7068 28.5558 10.0244 28.6751 8.2432 30.2953L1.63564 36.3059C-0.543062 38.2877 -0.545559 41.7152 1.63024 43.7004L19.4965 60.0001L1.63024 76.2998C-0.545559 78.2849 -0.543062 81.7126 1.63564 83.6944L8.2432 89.7049C10.0244 91.3252 12.7068 91.4444 14.6246 89.9886L35.2261 74.3504L82.5228 117.5C83.271 118.249 84.1495 118.812 85.0943 119.181ZM90.0182 32.7587L54.1309 60.0001L90.0182 87.2414V32.7587Z" fill="white"/>
</mask>
<g mask="url(#mask0_65_1708)">
<path d="M106.391 20.8446L85.7985 10.8725C83.415 9.71828 80.5665 10.2052 78.696 12.0866L11.2855 73.9051C9.47237 75.5677 9.47445 78.4389 11.29 80.099L16.7963 85.1337C18.2806 86.4909 20.516 86.5909 22.1142 85.3715L103.292 23.4316C106.015 21.3536 109.927 23.3073 109.927 26.7455V26.5051C109.927 24.0916 108.552 21.8916 106.391 20.8446Z" fill="#1A1A1A"/>
<g filter="url(#filter0_d_65_1708)">
<path d="M106.391 99.6585L85.7985 109.631C83.415 110.785 80.5665 110.298 78.696 108.417L11.2855 46.5981C9.47237 44.9353 9.47445 42.0642 11.29 40.4041L16.7963 35.3693C18.2806 34.0122 20.516 33.9122 22.1142 35.1316L103.292 97.0714C106.015 99.1495 109.927 97.1958 109.927 93.7577V93.9981C109.927 96.4115 108.552 98.6115 106.391 99.6585Z" fill="#1A1A1A"/>
</g>
<g filter="url(#filter1_d_65_1708)">
<path d="M85.7995 109.632C83.4153 110.786 80.5668 110.298 78.696 108.416C81.001 110.735 84.9422 109.093 84.9422 105.814V14.6889C84.9422 11.4103 81.001 9.76833 78.696 12.0867C80.5668 10.2051 83.4153 9.71751 85.7995 10.8708L106.388 20.8291C108.551 21.8755 109.927 24.0764 109.927 26.4908V94.0127C109.927 96.4272 108.551 98.628 106.388 99.6744L85.7995 109.632Z" fill="#1A1A1A"/>
</g>
<g style="mix-blend-mode:overlay" opacity="0.25">
<path style="mix-blend-mode:overlay" opacity="0.25" fill-rule="evenodd" clip-rule="evenodd" d="M80.7958 109.824C82.3698 110.441 84.1647 110.401 85.7534 109.633L106.329 99.6745C108.491 98.6281 109.866 96.4273 109.866 94.0127V26.4909C109.866 24.0764 108.491 21.8755 106.329 20.8291L85.7534 10.8708C83.6684 9.86173 81.2282 10.1089 79.3982 11.447C79.1369 11.6381 78.8878 11.8515 78.6542 12.0867L39.2642 48.2311L22.1068 35.1318C20.5096 33.9123 18.2756 34.0123 16.7922 35.3694L11.2892 40.4041C9.47473 42.0643 9.47265 44.9354 11.2847 46.5982L26.1642 60.2516L11.2847 73.9052C9.47265 75.568 9.47473 78.4391 11.2892 80.0991L16.7922 85.1339C18.2756 86.4911 20.5096 86.591 22.1068 85.3716L39.2642 72.2722L78.6542 108.417C79.2773 109.044 80.009 109.516 80.7958 109.824ZM84.8966 37.4329L55.0087 60.2516L84.8966 83.0704V37.4329Z" fill="#1A1A1A"/>
</g>
</g>
</g>
<defs>
<filter id="filter0_d_65_1708" x="1.59366" y="25.9468" width="116.667" height="92.6373" filterUnits="userSpaceOnUse" color-interpolation-filters="sRGB">
<feFlood flood-opacity="0" result="BackgroundImageFix"/>
<feColorMatrix in="SourceAlpha" type="matrix" values="0 0 0 0 0 0 0 0 0 0 0 0 0 0 0 0 0 0 127 0" result="hardAlpha"/>
<feOffset/>
<feGaussianBlur stdDeviation="4.16667"/>
<feColorMatrix type="matrix" values="0 0 0 0 0 0 0 0 0 0 0 0 0 0 0 0 0 0 0.25 0"/>
<feBlend mode="overlay" in2="BackgroundImageFix" result="effect1_dropShadow_65_1708"/>
<feBlend mode="normal" in="SourceGraphic" in2="effect1_dropShadow_65_1708" result="shape"/>
</filter>
<filter id="filter1_d_65_1708" x="70.3627" y="1.91834" width="47.8976" height="116.667" filterUnits="userSpaceOnUse" color-interpolation-filters="sRGB">
<feFlood flood-opacity="0" result="BackgroundImageFix"/>
<feColorMatrix in="SourceAlpha" type="matrix" values="0 0 0 0 0 0 0 0 0 0 0 0 0 0 0 0 0 0 127 0" result="hardAlpha"/>
<feOffset/>
<feGaussianBlur stdDeviation="4.16667"/>
<feColorMatrix type="matrix" values="0 0 0 0 0 0 0 0 0 0 0 0 0 0 0 0 0 0 0.25 0"/>
<feBlend mode="overlay" in2="BackgroundImageFix" result="effect1_dropShadow_65_1708"/>
<feBlend mode="normal" in="SourceGraphic" in2="effect1_dropShadow_65_1708" result="shape"/>
</filter>
<clipPath id="clip0_65_1708">
<rect width="120" height="120" fill="white"/>
</clipPath>
</defs>
</svg>
