<svg width="120" height="120" viewBox="0 0 120 120" fill="none" xmlns="http://www.w3.org/2000/svg">
<path d="M42.29 56.7762C42.29 54.9931 40.5456 53.0994 37.5269 53.0994C34.1371 53.0994 30.4132 55.5711 29.8441 60.5022C29.2626 65.4825 32.3803 67.696 35.5227 67.696C38.6651 67.696 40.3105 66.4786 41.9931 64.8554C40.5456 63.0477 38.6775 63.8839 38.3187 64.0684C37.9228 64.2651 37.4156 64.5357 36.3763 64.5357C35.1639 64.5357 33.9268 63.9946 33.9268 61.7442C41.6962 60.9818 42.29 58.5593 42.29 56.7762ZM38.4424 57.0713C38.3929 57.6247 38.1702 58.5716 34.236 59.1003C35.065 56.1736 36.6485 55.9523 37.3784 55.9523C38.0589 55.9523 38.4919 56.4811 38.4424 57.0713ZM25.279 57.5509C25.279 57.5509 23.6088 62.7649 23.4727 63.1953C23.4232 62.7526 22.1984 53.3945 22.1984 53.3945C19.353 53.3945 17.8313 55.4112 17.0271 57.5386C17.0271 57.5386 14.9981 62.7649 14.8249 63.2076C14.8126 62.8018 14.5157 57.6001 14.5157 57.6001C14.3424 54.9931 11.9423 53.4068 10 53.4068L12.3506 67.5853C15.3322 67.573 16.9405 65.5686 17.7818 63.4412C17.7818 63.4412 19.5757 58.8298 19.6499 58.6208C19.6623 58.8175 20.9365 67.5853 20.9365 67.5853C23.9305 67.5853 25.5388 65.7039 26.4048 63.6503L30.5988 53.4068C27.642 53.4068 26.0831 55.4112 25.279 57.5509ZM53.276 53.0748C51.4326 53.0748 50.0223 54.0708 48.8346 55.5342V55.5219L49.8986 47C47.449 47 45.4571 49.1151 45.0736 52.2632L43.2179 67.4747C44.6282 67.4747 46.1252 67.0689 46.9294 66.0359C47.6469 66.9582 48.7232 67.696 50.3192 67.696C54.4513 67.696 57.2844 62.9247 57.2844 58.4486C57.2597 54.366 55.2678 53.0748 53.276 53.0748ZM52.8925 60.3915C52.4595 62.8878 51.0615 64.5849 49.713 64.5849C48.3521 64.5849 47.7706 63.9823 47.7706 63.9823C48.0304 61.7934 48.1913 60.453 48.6861 59.2971C49.181 58.1412 50.3563 56.2966 51.5811 56.2966C52.7811 56.2966 53.3255 57.8829 52.8925 60.3915ZM67.6024 53.4068H64.7198L64.7322 53.2592C64.9301 51.3901 65.3755 50.4063 66.8477 50.2464C67.8498 50.1481 68.2952 49.6316 68.4065 49.0659C68.4931 48.6232 68.7653 47.0861 68.7653 47.0861C62.9754 47.0492 61.1567 49.5332 60.6866 53.3207L60.6743 53.4068H60.6124C59.6722 53.4068 58.6329 54.4643 58.4597 55.8047L58.3979 56.2966H60.3278L58.7072 69.6021L58.2123 71.9877C58.2742 71.9877 58.3484 72 58.4102 72C61.1196 71.9016 62.8517 69.7742 63.2352 66.6877L64.4971 56.2966H65.4002C66.291 56.2966 67.3302 55.4112 67.5158 53.9356L67.6024 53.4068ZM82.5968 53.1608C79.2688 53.1608 76.1264 55.5957 75.1615 59.4201C74.1965 63.2445 75.6563 67.7698 80.5555 67.7698C85.4423 67.7698 88.263 63.06 88.263 59.1372C88.263 55.2391 85.6031 53.1608 82.5968 53.1608ZM83.9453 60.2686C83.7721 62.0025 83.0051 64.634 80.9019 64.634C78.7863 64.634 79.0833 61.5598 79.2936 60.0964C79.5163 58.5347 80.3947 56.3089 82.2875 56.3089C83.9824 56.3089 84.1433 58.3133 83.9453 60.2686ZM104.705 57.5509C104.705 57.5509 103.035 62.7649 102.899 63.1953C102.849 62.7526 101.624 53.3945 101.624 53.3945C98.7789 53.3945 97.2572 55.4112 96.453 57.5386C96.453 57.5386 94.4241 62.7649 94.2509 63.2076C94.2385 62.8018 93.9416 57.6001 93.9416 57.6001C93.7684 54.9931 91.3683 53.4068 89.426 53.4068L91.7642 67.5853C94.7458 67.573 96.3541 65.5686 97.1954 63.4412C97.1954 63.4412 98.9892 58.8298 99.0511 58.6208C99.0758 58.8175 100.338 67.5853 100.338 67.5853C103.332 67.5853 104.94 65.7039 105.806 63.6503L110 53.4068C107.056 53.4068 105.497 55.4112 104.705 57.5509ZM70.3241 47.0861L67.8993 66.5278L67.4044 68.9257C67.4663 68.9257 67.5405 68.938 67.6024 68.938C70.2128 68.9011 72.0685 66.6262 72.4149 63.7609L73.8129 52.6075C74.2336 49.2012 72.1923 47.0861 70.3241 47.0861Z" fill="#1A1A1A"/>
</svg>
