<svg width="120" height="120" viewBox="0 0 120 120" fill="none" xmlns="http://www.w3.org/2000/svg">
<path d="M96.4957 36.7214L61.655 17.0115V32.3592L83.3633 44.3039L96.4957 36.7214ZM98.8823 38.8797V80.0924L86.1382 72.7269V46.2338L98.8823 38.8797ZM23.7538 36.7214L58.5946 17.0115V32.3592L36.8748 44.3039L23.7538 36.7214ZM21.3672 38.8797V80.0924L34.1113 72.7269V46.2338L21.3672 38.8797ZM22.8631 82.7646L58.5946 102.977V88.1431L35.6986 75.5475L35.5159 75.4447L22.8631 82.7646ZM97.3864 82.7646L61.655 102.977V88.1431L84.5509 75.5589L84.7336 75.4561L97.3864 82.7646Z" fill="#1A1A1A"/>
<path d="M58.5945 35.8536L37.1716 47.6385V70.9684L58.5945 58.6011V35.8536ZM61.6549 35.8536L83.0778 47.6271V70.9684L61.6549 58.6011V35.8536ZM38.6219 73.6634L60.1247 85.4825L81.6275 73.6634L60.1247 61.2504L38.6219 73.6634Z" fill="#1A1A1A"/>
</svg>
