<svg width="120" height="120" viewBox="0 0 120 120" fill="none" xmlns="http://www.w3.org/2000/svg">
<path d="M62.2942 36.2984L49.5047 57.421L63.188 79.851C63.2758 80.0079 63.3004 80.1924 63.2569 80.3669C63.2106 80.5282 63.0506 80.4266 62.7756 80.4718H53.0116C52.3239 80.4718 51.8426 80.4476 51.5675 79.9885C50.65 78.1997 49.7332 76.4223 48.8171 74.6563C47.8996 72.891 46.9255 71.0906 45.8949 69.2552C44.8635 67.4212 43.8435 65.5635 42.835 63.6821H42.7662C41.8487 65.5172 40.8975 67.352 39.9126 69.1864C38.9264 71.0215 37.9524 72.8448 36.9904 74.6563C36.0278 76.4688 35.0422 78.2691 34.0338 80.0574C33.85 80.4702 33.5287 80.5128 33.0709 80.5128H23.6509C23.4682 80.5128 23.365 80.5852 23.3415 80.4013C23.3156 80.2336 23.3523 80.0621 23.4447 79.9197L36.7153 58.109L23.7884 36.2295C23.6509 36.0468 23.628 35.8978 23.7195 35.7823C23.7703 35.7236 23.834 35.6775 23.9056 35.6477C23.9772 35.6178 24.0548 35.605 24.1322 35.6103H33.8273C34.0387 35.5986 34.2501 35.6339 34.4462 35.7136C34.6106 35.8068 34.7517 35.9362 34.8587 36.092C35.6839 37.927 36.6007 39.7618 37.6091 41.5962C38.617 43.4314 39.6369 45.2432 40.669 47.0317C41.7004 48.8206 42.6516 50.6324 43.5226 52.4672H43.5914C44.5077 50.5869 45.436 48.7521 46.3762 46.963C47.3153 45.174 48.2779 43.3737 49.264 41.5618C50.2494 39.7504 51.2006 37.95 52.1176 36.1608C52.1704 35.991 52.2649 35.8372 52.3927 35.7136C52.5625 35.6273 52.7533 35.5915 52.9428 35.6103H61.9504C62.0372 35.5889 62.1288 35.5976 62.21 35.6351C62.2912 35.6727 62.3572 35.7367 62.3972 35.8168C62.4372 35.8968 62.4488 35.9881 62.4301 36.0756C62.4114 36.1632 62.3635 36.2417 62.2942 36.2984L62.2942 36.2984Z" fill="#1A1A1A"/>
<path d="M82.0278 81.3647C78.8629 81.4129 75.727 80.7547 72.8482 79.4382C70.1664 78.1962 67.9245 76.1688 66.4192 73.6243C64.8602 71.0334 64.0809 67.7882 64.0813 63.8886C64.0554 60.7308 64.8618 57.622 66.4192 54.8753C68.0234 52.0777 70.3825 49.7886 73.2265 48.2702C76.2056 46.6189 79.8041 45.7933 84.0218 45.7933C84.2506 45.7933 84.5485 45.8048 84.9156 45.8277C85.282 45.8513 85.7175 45.8857 86.2221 45.9309V32.3767C86.2221 32.0562 86.3597 31.895 86.6348 31.895H95.2984C95.3545 31.887 95.4116 31.8922 95.4653 31.9101C95.519 31.928 95.5678 31.9581 95.6079 31.9982C95.6479 32.0382 95.6781 32.0871 95.696 32.1408C95.7139 32.1945 95.7191 32.2517 95.7111 32.3078V72.9706C95.7111 73.7512 95.7455 74.5997 95.8141 75.5164C95.883 76.4344 95.9403 77.26 95.9862 77.9933C95.9946 78.1362 95.9597 78.2783 95.8861 78.4011C95.8125 78.5239 95.7035 78.6215 95.5735 78.6813C93.3384 79.6141 91.0104 80.306 88.6288 80.7454C86.4512 81.1475 84.2421 81.3548 82.0278 81.3647ZM86.2221 72.833V54.0498C85.8504 53.949 85.4709 53.8799 85.0876 53.8433C84.6192 53.7962 84.1487 53.7732 83.6779 53.7745C82.0093 53.7579 80.3604 54.135 78.8647 54.8753C77.408 55.5999 76.1641 56.6905 75.2549 58.0403C74.3148 59.4164 73.8449 61.2282 73.8452 63.4758C73.8117 64.9756 74.0565 66.4687 74.5672 67.8792C74.9827 69.0157 75.6396 70.0486 76.4926 70.9065C77.3091 71.6959 78.2977 72.2848 79.3804 72.6267C80.5241 72.9972 81.7194 73.183 82.9216 73.177C83.563 73.177 84.1589 73.1541 84.7093 73.1083C85.2218 73.0696 85.7288 72.9774 86.2221 72.833Z" fill="#1A1A1A"/>
</svg>
