<svg width="1300" height="750" viewBox="0 0 1300 750" fill="none" xmlns="http://www.w3.org/2000/svg">
<circle cx="50" cy="50" r="50" stroke="white" stroke-width="2"/>
<circle cx="100" cy="100" r="50" stroke="white" stroke-width="2"/>
<circle cx="150" cy="50" r="50" stroke="white" stroke-width="2"/>
<circle cx="200" cy="100" r="50" stroke="white" stroke-width="2"/>
<circle cx="250" cy="50" r="50" stroke="white" stroke-width="2"/>
<circle cx="300" cy="100" r="50" stroke="white" stroke-width="2"/>
<circle cx="350" cy="50" r="50" stroke="white" stroke-width="2"/>
<circle cx="400" cy="100" r="50" stroke="white" stroke-width="2"/>
<circle cx="450" cy="50" r="50" stroke="white" stroke-width="2"/>
<circle cx="500" cy="100" r="50" stroke="white" stroke-width="2"/>
<circle cx="550" cy="50" r="50" stroke="white" stroke-width="2"/>
<circle cx="600" cy="100" r="50" stroke="white" stroke-width="2"/>
<circle cx="650" cy="50" r="50" stroke="white" stroke-width="2"/>
<circle cx="700" cy="100" r="50" stroke="white" stroke-width="2"/>
<circle cx="750" cy="50" r="50" stroke="white" stroke-width="2"/>
<circle cx="800" cy="100" r="50" stroke="white" stroke-width="2"/>
<circle cx="850" cy="50" r="50" stroke="white" stroke-width="2"/>
<circle cx="900" cy="100" r="50" stroke="white" stroke-width="2"/>
<circle cx="950" cy="50" r="50" stroke="white" stroke-width="2"/>
<circle cx="1000" cy="100" r="50" stroke="white" stroke-width="2"/>
<circle cx="1050" cy="50" r="50" stroke="white" stroke-width="2"/>
<circle cx="1100" cy="100" r="50" stroke="white" stroke-width="2"/>
<circle cx="1150" cy="50" r="50" stroke="white" stroke-width="2"/>
<circle cx="1200" cy="100" r="50" stroke="white" stroke-width="2"/>
<circle cx="1250" cy="50" r="50" stroke="white" stroke-width="2"/>
<circle cx="50" cy="150" r="50" stroke="white" stroke-width="2"/>
<circle cx="100" cy="200" r="50" stroke="white" stroke-width="2"/>
<circle cx="150" cy="150" r="50" stroke="white" stroke-width="2"/>
<circle cx="200" cy="200" r="50" stroke="white" stroke-width="2"/>
<circle cx="250" cy="150" r="50" stroke="white" stroke-width="2"/>
<circle cx="300" cy="200" r="50" stroke="white" stroke-width="2"/>
<circle cx="350" cy="150" r="50" stroke="white" stroke-width="2"/>
<circle cx="400" cy="200" r="50" stroke="white" stroke-width="2"/>
<circle cx="450" cy="150" r="50" stroke="white" stroke-width="2"/>
<circle cx="500" cy="200" r="50" stroke="white" stroke-width="2"/>
<circle cx="550" cy="150" r="50" stroke="white" stroke-width="2"/>
<circle cx="600" cy="200" r="50" stroke="white" stroke-width="2"/>
<circle cx="650" cy="150" r="50" stroke="white" stroke-width="2"/>
<circle cx="700" cy="200" r="50" stroke="white" stroke-width="2"/>
<circle cx="750" cy="150" r="50" stroke="white" stroke-width="2"/>
<circle cx="800" cy="200" r="50" stroke="white" stroke-width="2"/>
<circle cx="850" cy="150" r="50" stroke="white" stroke-width="2"/>
<circle cx="900" cy="200" r="50" stroke="white" stroke-width="2"/>
<circle cx="950" cy="150" r="50" stroke="white" stroke-width="2"/>
<circle cx="1000" cy="200" r="50" stroke="white" stroke-width="2"/>
<circle cx="1050" cy="150" r="50" stroke="white" stroke-width="2"/>
<circle cx="1100" cy="200" r="50" stroke="white" stroke-width="2"/>
<circle cx="1150" cy="150" r="50" stroke="white" stroke-width="2"/>
<circle cx="1200" cy="200" r="50" stroke="white" stroke-width="2"/>
<circle cx="1250" cy="150" r="50" stroke="white" stroke-width="2"/>
<circle cx="50" cy="250" r="50" stroke="white" stroke-width="2"/>
<circle cx="100" cy="300" r="50" stroke="white" stroke-width="2"/>
<circle cx="150" cy="250" r="50" stroke="white" stroke-width="2"/>
<circle cx="200" cy="300" r="50" stroke="white" stroke-width="2"/>
<circle cx="250" cy="250" r="50" stroke="white" stroke-width="2"/>
<circle cx="300" cy="300" r="50" stroke="white" stroke-width="2"/>
<circle cx="350" cy="250" r="50" stroke="white" stroke-width="2"/>
<circle cx="400" cy="300" r="50" stroke="white" stroke-width="2"/>
<circle cx="450" cy="250" r="50" stroke="white" stroke-width="2"/>
<circle cx="500" cy="300" r="50" stroke="white" stroke-width="2"/>
<circle cx="550" cy="250" r="50" stroke="white" stroke-width="2"/>
<circle cx="600" cy="300" r="50" stroke="white" stroke-width="2"/>
<circle cx="650" cy="250" r="50" stroke="white" stroke-width="2"/>
<circle cx="700" cy="300" r="50" stroke="white" stroke-width="2"/>
<circle cx="750" cy="250" r="50" stroke="white" stroke-width="2"/>
<circle cx="800" cy="300" r="50" stroke="white" stroke-width="2"/>
<circle cx="850" cy="250" r="50" stroke="white" stroke-width="2"/>
<circle cx="900" cy="300" r="50" stroke="white" stroke-width="2"/>
<circle cx="950" cy="250" r="50" stroke="white" stroke-width="2"/>
<circle cx="1000" cy="300" r="50" stroke="white" stroke-width="2"/>
<circle cx="1050" cy="250" r="50" stroke="white" stroke-width="2"/>
<circle cx="1100" cy="300" r="50" stroke="white" stroke-width="2"/>
<circle cx="1150" cy="250" r="50" stroke="white" stroke-width="2"/>
<circle cx="1200" cy="300" r="50" stroke="white" stroke-width="2"/>
<circle cx="1250" cy="250" r="50" stroke="white" stroke-width="2"/>
<circle cx="50" cy="350" r="50" stroke="white" stroke-width="2"/>
<circle cx="100" cy="400" r="50" stroke="white" stroke-width="2"/>
<circle cx="150" cy="350" r="50" stroke="white" stroke-width="2"/>
<circle cx="200" cy="400" r="50" stroke="white" stroke-width="2"/>
<circle cx="250" cy="350" r="50" stroke="white" stroke-width="2"/>
<circle cx="300" cy="400" r="50" stroke="white" stroke-width="2"/>
<circle cx="350" cy="350" r="50" stroke="white" stroke-width="2"/>
<circle cx="400" cy="400" r="50" stroke="white" stroke-width="2"/>
<circle cx="450" cy="350" r="50" stroke="white" stroke-width="2"/>
<circle cx="500" cy="400" r="50" stroke="white" stroke-width="2"/>
<circle cx="550" cy="350" r="50" stroke="white" stroke-width="2"/>
<circle cx="600" cy="400" r="50" stroke="white" stroke-width="2"/>
<circle cx="650" cy="350" r="50" stroke="white" stroke-width="2"/>
<circle cx="700" cy="400" r="50" stroke="white" stroke-width="2"/>
<circle cx="750" cy="350" r="50" stroke="white" stroke-width="2"/>
<circle cx="800" cy="400" r="50" stroke="white" stroke-width="2"/>
<circle cx="850" cy="350" r="50" stroke="white" stroke-width="2"/>
<circle cx="900" cy="400" r="50" stroke="white" stroke-width="2"/>
<circle cx="950" cy="350" r="50" stroke="white" stroke-width="2"/>
<circle cx="1000" cy="400" r="50" stroke="white" stroke-width="2"/>
<circle cx="1050" cy="350" r="50" stroke="white" stroke-width="2"/>
<circle cx="1100" cy="400" r="50" stroke="white" stroke-width="2"/>
<circle cx="1150" cy="350" r="50" stroke="white" stroke-width="2"/>
<circle cx="1200" cy="400" r="50" stroke="white" stroke-width="2"/>
<circle cx="1250" cy="350" r="50" stroke="white" stroke-width="2"/>
<circle cx="50" cy="450" r="50" stroke="white" stroke-width="2"/>
<circle cx="100" cy="500" r="50" stroke="white" stroke-width="2"/>
<circle cx="150" cy="450" r="50" stroke="white" stroke-width="2"/>
<circle cx="200" cy="500" r="50" stroke="white" stroke-width="2"/>
<circle cx="250" cy="450" r="50" stroke="white" stroke-width="2"/>
<circle cx="300" cy="500" r="50" stroke="white" stroke-width="2"/>
<circle cx="350" cy="450" r="50" stroke="white" stroke-width="2"/>
<circle cx="400" cy="500" r="50" stroke="white" stroke-width="2"/>
<circle cx="450" cy="450" r="50" stroke="white" stroke-width="2"/>
<circle cx="500" cy="500" r="50" stroke="white" stroke-width="2"/>
<circle cx="550" cy="450" r="50" stroke="white" stroke-width="2"/>
<circle cx="600" cy="500" r="50" stroke="white" stroke-width="2"/>
<circle cx="650" cy="450" r="50" stroke="white" stroke-width="2"/>
<circle cx="700" cy="500" r="50" stroke="white" stroke-width="2"/>
<circle cx="750" cy="450" r="50" stroke="white" stroke-width="2"/>
<circle cx="800" cy="500" r="50" stroke="white" stroke-width="2"/>
<circle cx="850" cy="450" r="50" stroke="white" stroke-width="2"/>
<circle cx="900" cy="500" r="50" stroke="white" stroke-width="2"/>
<circle cx="950" cy="450" r="50" stroke="white" stroke-width="2"/>
<circle cx="1000" cy="500" r="50" stroke="white" stroke-width="2"/>
<circle cx="1050" cy="450" r="50" stroke="white" stroke-width="2"/>
<circle cx="1100" cy="500" r="50" stroke="white" stroke-width="2"/>
<circle cx="1150" cy="450" r="50" stroke="white" stroke-width="2"/>
<circle cx="1200" cy="500" r="50" stroke="white" stroke-width="2"/>
<circle cx="1250" cy="450" r="50" stroke="white" stroke-width="2"/>
<circle cx="50" cy="550" r="50" stroke="white" stroke-width="2"/>
<circle cx="100" cy="600" r="50" stroke="white" stroke-width="2"/>
<circle cx="150" cy="550" r="50" stroke="white" stroke-width="2"/>
<circle cx="200" cy="600" r="50" stroke="white" stroke-width="2"/>
<circle cx="250" cy="550" r="50" stroke="white" stroke-width="2"/>
<circle cx="300" cy="600" r="50" stroke="white" stroke-width="2"/>
<circle cx="350" cy="550" r="50" stroke="white" stroke-width="2"/>
<circle cx="400" cy="600" r="50" stroke="white" stroke-width="2"/>
<circle cx="450" cy="550" r="50" stroke="white" stroke-width="2"/>
<circle cx="500" cy="600" r="50" stroke="white" stroke-width="2"/>
<circle cx="550" cy="550" r="50" stroke="white" stroke-width="2"/>
<circle cx="600" cy="600" r="50" stroke="white" stroke-width="2"/>
<circle cx="650" cy="550" r="50" stroke="white" stroke-width="2"/>
<circle cx="700" cy="600" r="50" stroke="white" stroke-width="2"/>
<circle cx="750" cy="550" r="50" stroke="white" stroke-width="2"/>
<circle cx="800" cy="600" r="50" stroke="white" stroke-width="2"/>
<circle cx="850" cy="550" r="50" stroke="white" stroke-width="2"/>
<circle cx="900" cy="600" r="50" stroke="white" stroke-width="2"/>
<circle cx="950" cy="550" r="50" stroke="white" stroke-width="2"/>
<circle cx="1000" cy="600" r="50" stroke="white" stroke-width="2"/>
<circle cx="1050" cy="550" r="50" stroke="white" stroke-width="2"/>
<circle cx="1100" cy="600" r="50" stroke="white" stroke-width="2"/>
<circle cx="1150" cy="550" r="50" stroke="white" stroke-width="2"/>
<circle cx="1200" cy="600" r="50" stroke="white" stroke-width="2"/>
<circle cx="1250" cy="550" r="50" stroke="white" stroke-width="2"/>
<circle cx="50" cy="650" r="50" stroke="white" stroke-width="2"/>
<circle cx="100" cy="700" r="50" stroke="white" stroke-width="2"/>
<circle cx="150" cy="650" r="50" stroke="white" stroke-width="2"/>
<circle cx="200" cy="700" r="50" stroke="white" stroke-width="2"/>
<circle cx="250" cy="650" r="50" stroke="white" stroke-width="2"/>
<circle cx="300" cy="700" r="50" stroke="white" stroke-width="2"/>
<circle cx="350" cy="650" r="50" stroke="white" stroke-width="2"/>
<circle cx="400" cy="700" r="50" stroke="white" stroke-width="2"/>
<circle cx="450" cy="650" r="50" stroke="white" stroke-width="2"/>
<circle cx="500" cy="700" r="50" stroke="white" stroke-width="2"/>
<circle cx="550" cy="650" r="50" stroke="white" stroke-width="2"/>
<circle cx="600" cy="700" r="50" stroke="white" stroke-width="2"/>
<circle cx="650" cy="650" r="50" stroke="white" stroke-width="2"/>
<circle cx="700" cy="700" r="50" stroke="white" stroke-width="2"/>
<circle cx="750" cy="650" r="50" stroke="white" stroke-width="2"/>
<circle cx="800" cy="700" r="50" stroke="white" stroke-width="2"/>
<circle cx="850" cy="650" r="50" stroke="white" stroke-width="2"/>
<circle cx="900" cy="700" r="50" stroke="white" stroke-width="2"/>
<circle cx="950" cy="650" r="50" stroke="white" stroke-width="2"/>
<circle cx="1000" cy="700" r="50" stroke="white" stroke-width="2"/>
<circle cx="1050" cy="650" r="50" stroke="white" stroke-width="2"/>
<circle cx="1100" cy="700" r="50" stroke="white" stroke-width="2"/>
<circle cx="1150" cy="650" r="50" stroke="white" stroke-width="2"/>
<circle cx="1200" cy="700" r="50" stroke="white" stroke-width="2"/>
<circle cx="1250" cy="650" r="50" stroke="white" stroke-width="2"/>
<circle cx="50" cy="750" r="50" stroke="white" stroke-width="2"/>
<circle cx="100" cy="800" r="50" stroke="white" stroke-width="2"/>
<circle cx="150" cy="750" r="50" stroke="white" stroke-width="2"/>
<circle cx="200" cy="800" r="50" stroke="white" stroke-width="2"/>
<circle cx="250" cy="750" r="50" stroke="white" stroke-width="2"/>
<circle cx="300" cy="800" r="50" stroke="white" stroke-width="2"/>
<circle cx="350" cy="750" r="50" stroke="white" stroke-width="2"/>
<circle cx="400" cy="800" r="50" stroke="white" stroke-width="2"/>
<circle cx="450" cy="750" r="50" stroke="white" stroke-width="2"/>
<circle cx="500" cy="800" r="50" stroke="white" stroke-width="2"/>
<circle cx="550" cy="750" r="50" stroke="white" stroke-width="2"/>
<circle cx="600" cy="800" r="50" stroke="white" stroke-width="2"/>
<circle cx="650" cy="750" r="50" stroke="white" stroke-width="2"/>
<circle cx="700" cy="800" r="50" stroke="white" stroke-width="2"/>
<circle cx="750" cy="750" r="50" stroke="white" stroke-width="2"/>
<circle cx="800" cy="800" r="50" stroke="white" stroke-width="2"/>
<circle cx="850" cy="750" r="50" stroke="white" stroke-width="2"/>
<circle cx="900" cy="800" r="50" stroke="white" stroke-width="2"/>
<circle cx="950" cy="750" r="50" stroke="white" stroke-width="2"/>
<circle cx="1000" cy="800" r="50" stroke="white" stroke-width="2"/>
<circle cx="1050" cy="750" r="50" stroke="white" stroke-width="2"/>
<circle cx="1100" cy="800" r="50" stroke="white" stroke-width="2"/>
<circle cx="1150" cy="750" r="50" stroke="white" stroke-width="2"/>
<circle cx="1200" cy="800" r="50" stroke="white" stroke-width="2"/>
<circle cx="1250" cy="750" r="50" stroke="white" stroke-width="2"/>
</svg>
